<?xml version="1.0" standalone="no"?>
<!DOCTYPE svg PUBLIC "-//W3C//DTD SVG 1.1//EN" "http://www.w3.org/Graphics/SVG/1.1/DTD/svg11.dtd" >
<svg xmlns="http://www.w3.org/2000/svg">
<metadata>Generated by IcoMoon</metadata>
<defs>
<font id="icomoon" horiz-adv-x="1024">
<font-face units-per-em="1024" ascent="960" descent="-64" />
<missing-glyph horiz-adv-x="1024" />
<glyph unicode="&#x20;" horiz-adv-x="512" d="" />
<glyph unicode="&#xe903;" horiz-adv-x="1075" d="M306.943 140.8c-56.461 0-102.143-46.080-102.143-102.4s45.682-102.4 102.143-102.4c56.461 0 102.657 46.080 102.657 102.4s-46.195 102.4-102.657 102.4zM818.943 140.8c-56.461 0-102.143-46.080-102.143-102.4s45.682-102.4 102.143-102.4c56.461 0 102.657 46.080 102.657 102.4s-46.195 102.4-102.657 102.4zM316.698 307.2l1.54 6.144 38.888 70.254c4.509 8.146 13.086 13.202 22.398 13.202h367.308c38.496 0 72.373 20.992 89.825 52.736l185.711 336.417c6.833 12.378 2.338 27.951-10.040 34.784-0.028 0.015-0.055 0.031-0.083 0.046l-44.898 24.568c-12.375 6.771-27.896 2.256-34.707-10.097l-44.14-80.054-134.36-242.795c-4.509-8.148-13.087-13.205-22.399-13.205h-329.885c-9.386 0-17.943 5.372-22.023 13.824v0 0l-114.976 242.176-48.762 102.4-34.407 73.023c-8.45 17.933-26.492 29.377-46.316 29.377h-109.77c-14.138 0-25.6-11.462-25.6-25.6v-51.2c0-14.138 11.462-25.6 25.6-25.6h60.883c9.879 0 18.877-5.685 23.119-14.607l172.194-362.133c3.543-7.45 3.278-16.151-0.711-23.372l-62.939-113.937c-8.213-14.336-12.832-31.232-12.832-49.152 0-56.32 46.196-102.4 102.657-102.4h590.343c14.138 0 25.6 11.462 25.6 25.6v51.2c0 14.138-11.462 25.6-25.6 25.6h-568.785c-6.673 0-12.832 5.632-12.832 12.8z" />
<glyph unicode="&#xe904;" horiz-adv-x="1075" d="M716.8 806.4c0-84.831-68.769-153.6-153.6-153.6s-153.6 68.769-153.6 153.6c0 84.831 68.769 153.6 153.6 153.6s153.6-68.769 153.6-153.6z" />
<glyph unicode="&#xe905;" horiz-adv-x="1075" d="M306.943 140.8c-56.461 0-102.143-46.080-102.143-102.4s45.682-102.4 102.143-102.4c56.461 0 102.657 46.080 102.657 102.4s-46.195 102.4-102.657 102.4zM818.943 140.8c-56.461 0-102.143-46.080-102.143-102.4s45.682-102.4 102.143-102.4c56.461 0 102.657 46.080 102.657 102.4s-46.195 102.4-102.657 102.4zM316.698 307.2l1.54 6.144 38.888 70.254c4.509 8.146 13.086 13.202 22.398 13.202h367.308c38.496 0 72.373 20.992 89.825 52.736l185.711 336.417c6.833 12.378 2.338 27.951-10.040 34.784-0.028 0.015-0.055 0.031-0.083 0.046l-44.898 24.568c-12.375 6.771-27.896 2.256-34.707-10.097l-44.14-80.054-134.36-242.795c-4.509-8.148-13.087-13.205-22.399-13.205h-329.885c-9.386 0-17.943 5.372-22.023 13.824v0 0l-114.976 242.176-48.762 102.4-34.407 73.023c-8.45 17.933-26.492 29.377-46.316 29.377h-109.77c-14.138 0-25.6-11.462-25.6-25.6v-51.2c0-14.138 11.462-25.6 25.6-25.6h60.883c9.879 0 18.877-5.685 23.119-14.607l172.194-362.133c3.543-7.45 3.278-16.151-0.711-23.372l-62.939-113.937c-8.213-14.336-12.832-31.232-12.832-49.152 0-56.32 46.196-102.4 102.657-102.4h590.343c14.138 0 25.6 11.462 25.6 25.6v51.2c0 14.138-11.462 25.6-25.6 25.6h-568.785c-6.673 0-12.832 5.632-12.832 12.8z" />
<glyph unicode="&#xe906;" horiz-adv-x="1075" d="M716.8 806.4c0-84.831-68.769-153.6-153.6-153.6s-153.6 68.769-153.6 153.6c0 84.831 68.769 153.6 153.6 153.6s153.6-68.769 153.6-153.6z" />
<glyph unicode="&#xe907;" glyph-name="cart-day-hover" d="M306.943 140.8c-56.461 0-102.143-46.080-102.143-102.4s45.682-102.4 102.143-102.4c56.461 0 102.657 46.080 102.657 102.4s-46.196 102.4-102.657 102.4zM818.943 140.8c-56.461 0-102.143-46.080-102.143-102.4s45.682-102.4 102.143-102.4c56.461 0 102.657 46.080 102.657 102.4s-46.196 102.4-102.657 102.4zM316.698 307.2l1.54 6.144 38.888 70.252c4.509 8.151 13.086 13.204 22.398 13.204h367.308c38.496 0 72.373 20.992 89.825 52.736l185.71 336.415c6.833 12.38 2.338 27.955-10.040 34.785-0.028 0.015-0.055 0.031-0.083 0.046l-44.898 24.571c-12.375 6.769-27.896 2.253-34.707-10.097l-44.14-80.056-134.36-242.796c-4.509-8.146-13.087-13.204-22.399-13.204h-329.885c-9.386 0-17.943 5.371-22.023 13.824v0 0l-114.976 242.176-48.762 102.4-34.407 73.021c-8.45 17.935-26.492 29.379-46.316 29.379h-109.77c-14.138 0-25.6-11.464-25.6-25.6v-51.2c0-14.136 11.462-25.6 25.6-25.6h60.883c9.879 0 18.877-5.683 23.119-14.607l172.194-362.132c3.543-7.45 3.278-16.148-0.711-23.373l-62.939-113.935c-8.213-14.336-12.832-31.232-12.832-49.152 0-56.32 46.196-102.4 102.657-102.4h590.343c14.138 0 25.6 11.464 25.6 25.6v51.2c0 14.136-11.462 25.6-25.6 25.6h-568.785c-6.673 0-12.832 5.632-12.832 12.8z" />
<glyph unicode="&#xe908;" glyph-name="cart-day-inactive" d="M306.943 140.8c-56.461 0-102.143-46.080-102.143-102.4s45.682-102.4 102.143-102.4c56.461 0 102.657 46.080 102.657 102.4s-46.196 102.4-102.657 102.4zM818.943 140.8c-56.461 0-102.143-46.080-102.143-102.4s45.682-102.4 102.143-102.4c56.461 0 102.657 46.080 102.657 102.4s-46.196 102.4-102.657 102.4zM316.698 307.2l1.54 6.144 38.888 70.252c4.509 8.151 13.086 13.204 22.398 13.204h367.308c38.496 0 72.373 20.992 89.825 52.736l185.71 336.415c6.833 12.38 2.338 27.955-10.040 34.785-0.028 0.015-0.055 0.031-0.083 0.046l-44.898 24.571c-12.375 6.769-27.896 2.253-34.707-10.097l-44.14-80.056-134.36-242.796c-4.509-8.146-13.087-13.204-22.399-13.204h-329.885c-9.386 0-17.943 5.371-22.023 13.824v0 0l-114.976 242.176-48.762 102.4-34.407 73.021c-8.45 17.935-26.492 29.379-46.316 29.379h-109.77c-14.138 0-25.6-11.464-25.6-25.6v-51.2c0-14.136 11.462-25.6 25.6-25.6h60.883c9.879 0 18.877-5.683 23.119-14.607l172.194-362.132c3.543-7.45 3.278-16.148-0.711-23.373l-62.939-113.935c-8.213-14.336-12.832-31.232-12.832-49.152 0-56.32 46.196-102.4 102.657-102.4h590.343c14.138 0 25.6 11.464 25.6 25.6v51.2c0 14.136-11.462 25.6-25.6 25.6h-568.785c-6.673 0-12.832 5.632-12.832 12.8z" />
<glyph unicode="&#xe909;" glyph-name="cart-night-active" d="M306.943 140.8c-56.461 0-102.143-46.080-102.143-102.4s45.682-102.4 102.143-102.4c56.461 0 102.657 46.080 102.657 102.4s-46.196 102.4-102.657 102.4zM818.943 140.8c-56.461 0-102.143-46.080-102.143-102.4s45.682-102.4 102.143-102.4c56.461 0 102.657 46.080 102.657 102.4s-46.196 102.4-102.657 102.4zM316.698 307.2l1.54 6.144 38.888 70.252c4.509 8.151 13.086 13.204 22.398 13.204h367.308c38.496 0 72.373 20.992 89.825 52.736l185.71 336.415c6.833 12.38 2.338 27.955-10.040 34.785-0.028 0.015-0.055 0.031-0.083 0.046l-44.898 24.571c-12.375 6.769-27.896 2.253-34.707-10.097l-44.14-80.056-134.36-242.796c-4.509-8.146-13.087-13.204-22.399-13.204h-329.885c-9.386 0-17.943 5.371-22.023 13.824v0 0l-114.976 242.176-48.762 102.4-34.407 73.021c-8.45 17.935-26.492 29.379-46.316 29.379h-109.77c-14.138 0-25.6-11.464-25.6-25.6v-51.2c0-14.136 11.462-25.6 25.6-25.6h60.883c9.879 0 18.877-5.683 23.119-14.607l172.194-362.132c3.543-7.45 3.278-16.148-0.711-23.373l-62.939-113.935c-8.213-14.336-12.832-31.232-12.832-49.152 0-56.32 46.196-102.4 102.657-102.4h590.343c14.138 0 25.6 11.464 25.6 25.6v51.2c0 14.136-11.462 25.6-25.6 25.6h-568.785c-6.673 0-12.832 5.632-12.832 12.8z" />
<glyph unicode="&#xe90a;" horiz-adv-x="1075" d="M306.943 140.8c-56.461 0-102.143-46.080-102.143-102.4s45.682-102.4 102.143-102.4c56.461 0 102.657 46.080 102.657 102.4s-46.195 102.4-102.657 102.4zM818.943 140.8c-56.461 0-102.143-46.080-102.143-102.4s45.682-102.4 102.143-102.4c56.461 0 102.657 46.080 102.657 102.4s-46.195 102.4-102.657 102.4zM316.698 307.2l1.54 6.144 38.888 70.254c4.509 8.146 13.086 13.202 22.398 13.202h367.308c38.496 0 72.373 20.992 89.825 52.736l185.711 336.417c6.833 12.378 2.338 27.951-10.040 34.784-0.028 0.015-0.055 0.031-0.083 0.046l-44.898 24.568c-12.375 6.771-27.896 2.256-34.707-10.097l-44.14-80.054-134.36-242.795c-4.509-8.148-13.087-13.205-22.399-13.205h-329.885c-9.386 0-17.943 5.372-22.023 13.824v0 0l-114.976 242.176-48.762 102.4-34.407 73.023c-8.45 17.933-26.492 29.377-46.316 29.377h-109.77c-14.138 0-25.6-11.462-25.6-25.6v-51.2c0-14.138 11.462-25.6 25.6-25.6h60.883c9.879 0 18.877-5.685 23.119-14.607l172.194-362.133c3.543-7.45 3.278-16.151-0.711-23.372l-62.939-113.937c-8.213-14.336-12.832-31.232-12.832-49.152 0-56.32 46.196-102.4 102.657-102.4h590.343c14.138 0 25.6 11.462 25.6 25.6v51.2c0 14.138-11.462 25.6-25.6 25.6h-568.785c-6.673 0-12.832 5.632-12.832 12.8z" />
<glyph unicode="&#xe90b;" horiz-adv-x="1075" d="M716.8 806.4c0-84.831-68.769-153.6-153.6-153.6s-153.6 68.769-153.6 153.6c0 84.831 68.769 153.6 153.6 153.6s153.6-68.769 153.6-153.6z" />
<glyph unicode="&#xe90c;" horiz-adv-x="1075" d="M306.943 140.8c-56.461 0-102.143-46.080-102.143-102.4s45.682-102.4 102.143-102.4c56.461 0 102.657 46.080 102.657 102.4s-46.195 102.4-102.657 102.4zM818.943 140.8c-56.461 0-102.143-46.080-102.143-102.4s45.682-102.4 102.143-102.4c56.461 0 102.657 46.080 102.657 102.4s-46.195 102.4-102.657 102.4zM316.698 307.2l1.54 6.144 38.888 70.254c4.509 8.146 13.086 13.202 22.398 13.202h367.308c38.496 0 72.373 20.992 89.825 52.736l185.711 336.417c6.833 12.378 2.338 27.951-10.040 34.784-0.028 0.015-0.055 0.031-0.083 0.046l-44.898 24.568c-12.375 6.771-27.896 2.256-34.707-10.097l-44.14-80.054-134.36-242.795c-4.509-8.148-13.087-13.205-22.399-13.205h-329.885c-9.386 0-17.943 5.372-22.023 13.824v0 0l-114.976 242.176-48.762 102.4-34.407 73.023c-8.45 17.933-26.492 29.377-46.316 29.377h-109.77c-14.138 0-25.6-11.462-25.6-25.6v-51.2c0-14.138 11.462-25.6 25.6-25.6h60.883c9.879 0 18.877-5.685 23.119-14.607l172.194-362.133c3.543-7.45 3.278-16.151-0.711-23.372l-62.939-113.937c-8.213-14.336-12.832-31.232-12.832-49.152 0-56.32 46.196-102.4 102.657-102.4h590.343c14.138 0 25.6 11.462 25.6 25.6v51.2c0 14.138-11.462 25.6-25.6 25.6h-568.785c-6.673 0-12.832 5.632-12.832 12.8z" />
<glyph unicode="&#xe90d;" horiz-adv-x="1075" d="M716.8 806.4c0-84.831-68.769-153.6-153.6-153.6s-153.6 68.769-153.6 153.6c0 84.831 68.769 153.6 153.6 153.6s153.6-68.769 153.6-153.6z" />
<glyph unicode="&#xe90e;" horiz-adv-x="1075" d="M306.943 140.8c-56.461 0-102.143-46.080-102.143-102.4s45.682-102.4 102.143-102.4c56.461 0 102.657 46.080 102.657 102.4s-46.195 102.4-102.657 102.4zM818.943 140.8c-56.461 0-102.143-46.080-102.143-102.4s45.682-102.4 102.143-102.4c56.461 0 102.657 46.080 102.657 102.4s-46.195 102.4-102.657 102.4zM316.698 307.2l1.54 6.144 38.888 70.254c4.509 8.146 13.086 13.202 22.398 13.202h367.308c38.496 0 72.373 20.992 89.825 52.736l185.711 336.417c6.833 12.378 2.338 27.951-10.040 34.784-0.028 0.015-0.055 0.031-0.083 0.046l-44.898 24.568c-12.375 6.771-27.896 2.256-34.707-10.097l-44.14-80.054-134.36-242.795c-4.509-8.148-13.087-13.205-22.399-13.205h-329.885c-9.386 0-17.943 5.372-22.023 13.824v0 0l-114.976 242.176-48.762 102.4-34.407 73.023c-8.45 17.933-26.492 29.377-46.316 29.377h-109.77c-14.138 0-25.6-11.462-25.6-25.6v-51.2c0-14.138 11.462-25.6 25.6-25.6h60.883c9.879 0 18.877-5.685 23.119-14.607l172.194-362.133c3.543-7.45 3.278-16.151-0.711-23.372l-62.939-113.937c-8.213-14.336-12.832-31.232-12.832-49.152 0-56.32 46.196-102.4 102.657-102.4h590.343c14.138 0 25.6 11.462 25.6 25.6v51.2c0 14.138-11.462 25.6-25.6 25.6h-568.785c-6.673 0-12.832 5.632-12.832 12.8z" />
<glyph unicode="&#xe90f;" horiz-adv-x="1075" d="M716.8 806.4c0-84.831-68.769-153.6-153.6-153.6s-153.6 68.769-153.6 153.6c0 84.831 68.769 153.6 153.6 153.6s153.6-68.769 153.6-153.6z" />
<glyph unicode="&#xe910;" glyph-name="cart-night-hover" d="M306.943 140.8c-56.461 0-102.143-46.080-102.143-102.4s45.682-102.4 102.143-102.4c56.461 0 102.657 46.080 102.657 102.4s-46.196 102.4-102.657 102.4zM818.943 140.8c-56.461 0-102.143-46.080-102.143-102.4s45.682-102.4 102.143-102.4c56.461 0 102.657 46.080 102.657 102.4s-46.196 102.4-102.657 102.4zM316.698 307.2l1.54 6.144 38.888 70.252c4.509 8.151 13.086 13.204 22.398 13.204h367.308c38.496 0 72.373 20.992 89.825 52.736l185.71 336.415c6.833 12.38 2.338 27.955-10.040 34.785-0.028 0.015-0.055 0.031-0.083 0.046l-44.898 24.571c-12.375 6.769-27.896 2.253-34.707-10.097l-44.14-80.056-134.36-242.796c-4.509-8.146-13.087-13.204-22.399-13.204h-329.885c-9.386 0-17.943 5.371-22.023 13.824v0 0l-114.976 242.176-48.762 102.4-34.407 73.021c-8.45 17.935-26.492 29.379-46.316 29.379h-109.77c-14.138 0-25.6-11.464-25.6-25.6v-51.2c0-14.136 11.462-25.6 25.6-25.6h60.883c9.879 0 18.877-5.683 23.119-14.607l172.194-362.132c3.543-7.45 3.278-16.148-0.711-23.373l-62.939-113.935c-8.213-14.336-12.832-31.232-12.832-49.152 0-56.32 46.196-102.4 102.657-102.4h590.343c14.138 0 25.6 11.464 25.6 25.6v51.2c0 14.136-11.462 25.6-25.6 25.6h-568.785c-6.673 0-12.832 5.632-12.832 12.8z" />
<glyph unicode="&#xe911;" glyph-name="cart-night-inactive" d="M306.943 140.8c-56.461 0-102.143-46.080-102.143-102.4s45.682-102.4 102.143-102.4c56.461 0 102.657 46.080 102.657 102.4s-46.196 102.4-102.657 102.4zM818.943 140.8c-56.461 0-102.143-46.080-102.143-102.4s45.682-102.4 102.143-102.4c56.461 0 102.657 46.080 102.657 102.4s-46.196 102.4-102.657 102.4zM316.698 307.2l1.54 6.144 38.888 70.252c4.509 8.151 13.086 13.204 22.398 13.204h367.308c38.496 0 72.373 20.992 89.825 52.736l185.71 336.415c6.833 12.38 2.338 27.955-10.040 34.785-0.028 0.015-0.055 0.031-0.083 0.046l-44.898 24.571c-12.375 6.769-27.896 2.253-34.707-10.097l-44.14-80.056-134.36-242.796c-4.509-8.146-13.087-13.204-22.399-13.204h-329.885c-9.386 0-17.943 5.371-22.023 13.824v0 0l-114.976 242.176-48.762 102.4-34.407 73.021c-8.45 17.935-26.492 29.379-46.316 29.379h-109.77c-14.138 0-25.6-11.464-25.6-25.6v-51.2c0-14.136 11.462-25.6 25.6-25.6h60.883c9.879 0 18.877-5.683 23.119-14.607l172.194-362.132c3.543-7.45 3.278-16.148-0.711-23.373l-62.939-113.935c-8.213-14.336-12.832-31.232-12.832-49.152 0-56.32 46.196-102.4 102.657-102.4h590.343c14.138 0 25.6 11.464 25.6 25.6v51.2c0 14.136-11.462 25.6-25.6 25.6h-568.785c-6.673 0-12.832 5.632-12.832 12.8z" />
<glyph unicode="&#xe915;" glyph-name="search-day-inactive" d="M1005.219 40.253l-280.359 280.48c50.255 68.545 77.176 151.415 76.801 236.409-0.959 221.864-180.4 401.572-402.253 402.854-106.169 0.48-208.121-41.522-283.143-116.65s-116.883-177.142-116.257-283.314c0.959-221.884 180.416-401.609 402.289-402.89 85.337-0.37 168.506 26.867 237.095 77.645l0.293 0.219 280.103-280.261c15.144-15.888 37.71-22.32 58.955-16.802s37.829 22.117 43.329 43.367c5.499 21.25-0.951 43.811-16.852 58.943v0zM402.004 237.456c-177.489 1.021-321.052 144.786-321.832 322.283-0.479 84.927 33.012 166.521 93.019 226.62s141.548 93.712 226.472 93.359c177.489-1.021 321.052-144.786 321.832-322.283 0.479-84.927-33.012-166.521-93.019-226.62s-141.548-93.712-226.472-93.359z" />
<glyph unicode="&#xe916;" glyph-name="search-night-hover" d="M1005.219 40.253l-280.359 280.48c50.255 68.545 77.176 151.415 76.801 236.409-0.959 221.864-180.4 401.572-402.253 402.854-106.169 0.48-208.121-41.522-283.143-116.65s-116.883-177.142-116.257-283.314c0.959-221.884 180.416-401.609 402.289-402.89 85.337-0.37 168.506 26.867 237.095 77.645l0.293 0.219 280.103-280.261c15.144-15.888 37.71-22.32 58.955-16.802s37.829 22.117 43.329 43.367c5.499 21.25-0.951 43.811-16.852 58.943v0zM402.004 237.456c-177.489 1.021-321.052 144.786-321.832 322.283-0.479 84.927 33.012 166.521 93.019 226.62s141.548 93.712 226.472 93.359c177.489-1.021 321.052-144.786 321.832-322.283 0.479-84.927-33.012-166.521-93.019-226.62s-141.548-93.712-226.472-93.359z" />
<glyph unicode="&#xe917;" glyph-name="search-night-inactive" d="M1005.219 40.253l-280.359 280.48c50.255 68.545 77.176 151.415 76.801 236.409-0.959 221.864-180.4 401.572-402.253 402.854-106.169 0.48-208.121-41.522-283.143-116.65s-116.883-177.142-116.257-283.314c0.959-221.884 180.416-401.609 402.289-402.89 85.337-0.37 168.506 26.867 237.095 77.645l0.293 0.219 280.103-280.261c15.144-15.888 37.71-22.32 58.955-16.802s37.829 22.117 43.329 43.367c5.499 21.25-0.951 43.811-16.852 58.943v0zM402.004 237.456c-177.489 1.021-321.052 144.786-321.832 322.283-0.479 84.927 33.012 166.521 93.019 226.62s141.548 93.712 226.472 93.359c177.489-1.021 321.052-144.786 321.832-322.283 0.479-84.927-33.012-166.521-93.019-226.62s-141.548-93.712-226.472-93.359z" />
<glyph unicode="&#xe918;" glyph-name="serach-night-active" d="M1005.219 40.253l-280.359 280.48c50.255 68.545 77.176 151.415 76.801 236.409-0.959 221.864-180.4 401.572-402.253 402.854-106.169 0.48-208.121-41.522-283.143-116.65s-116.883-177.142-116.257-283.314c0.959-221.884 180.416-401.609 402.289-402.89 85.337-0.37 168.506 26.867 237.095 77.645l0.293 0.219 280.103-280.261c15.144-15.888 37.71-22.32 58.955-16.802s37.829 22.117 43.329 43.367c5.499 21.25-0.951 43.811-16.852 58.943v0zM402.004 237.456c-177.489 1.021-321.052 144.786-321.832 322.283-0.479 84.927 33.012 166.521 93.019 226.62s141.548 93.712 226.472 93.359c177.489-1.021 321.052-144.786 321.832-322.283 0.479-84.927-33.012-166.521-93.019-226.62s-141.548-93.712-226.472-93.359z" />
</font>
</defs>
</svg>
